# xmcd CD database file
#
# Track frame offsets:
#	150
#	20687
#	47810
#	68389
#	85622
#	114264
#	146311
#	168773
#	188944
#	215001
#
# Disc length: 3159 seconds
#
# Revision: 0
# Processed by: cddbd v1.5.1PL2 Copyright (c) Steve Scherf et al.
# Submitted via: CDex 1.51
#
DISCID=7c0c550a
DTITLE=Various Artist - Mann Punjab De
DYEAR=2001
DGENRE=Punjabi Bhangra
TTITLE0=Mehfil Mitraan Di
TTITLE1=Chham Chham Kardi
TTITLE2=Lara Lappa Laye Rakhdi
TTITLE3=Ronak Punjab Wargi
TTITLE4=Tara Ni Tara
TTITLE5=Wah Ni Jawaniye
TTITLE6=Gallan Goriyaan De Vich
TTITLE7=Billo Ik Gal Tere Ton
TTITLE8=Raat Chandni
TTITLE9=Haye Mar Gaye
EXTD=YEAR: 2001
EXTT0=
EXTT1=
EXTT2=
EXTT3=
EXTT4=
EXTT5=
EXTT6=
EXTT7=
EXTT8=
EXTT9=
PLAYORDER=
